# xmcd
#
# Track frame offsets: 
#        300
#        18627
#        45033
#        66108
#        87183
#        102727
#        128294
#        149849
#        174991
#        197918
#        222301
#        238834
#        262425
#
# Disc length: 3795 seconds
#
# Revision: 2
# Processed by: cddbd v1.5.2PL0 Copyright (c) Steve Scherf et al.
# Submitted via: ExactAudioCopy v1.0b1
#
DISCID=c50ecf0d
DTITLE=Dave Specter - Left Turn on Blue
DYEAR=1996
DGENRE=Blues
TTITLE0=Get Back Home
TTITLE1=Stop! Hold It
TTITLE2=Killer Jack
TTITLE3=Till the End of Time
TTITLE4=Party Girl
TTITLE5=Juice Head Baby
TTITLE6=Left Turn on Blue
TTITLE7=Unleavened Soul
TTITLE8=Hopeless
TTITLE9=What's the Matter?
TTITLE10=Tremble
TTITLE11=Roll Baby Roll
TTITLE12=When Will the Blues Leave?
EXTD=
EXTT0=
EXTT1=
EXTT2=
EXTT3=
EXTT4=
EXTT5=
EXTT6=
EXTT7=
EXTT8=
EXTT9=
EXTT10=
EXTT11=
EXTT12=
PLAYORDER=
